<?xml version="1.0" encoding="UTF-8" standalone="no"?><!DOCTYPE svg PUBLIC "-//W3C//DTD SVG 1.1//EN" "http://www.w3.org/Graphics/SVG/1.1/DTD/svg11.dtd"><svg width="100%" height="100%" viewBox="0 0 1451 1434" version="1.1" xmlns="http://www.w3.org/2000/svg" xmlns:xlink="http://www.w3.org/1999/xlink" xml:space="preserve" xmlns:serif="http://www.serif.com/" style="fill-rule:evenodd;clip-rule:evenodd;stroke-linejoin:round;stroke-miterlimit:2;"><rect id="Artboard1" x="0" y="0" width="1451" height="1434" style="fill:none;"/><path d="M119.8,317.3l934.3,-0c86.073,-0 156.9,70.827 156.9,156.9l-0,45.4c-0,-0 -1091.2,0 -1091.2,0c-55.462,0 -101.1,-45.638 -101.1,-101.1c-0,-0.033 -0,-0.067 -0,-0.1c-0,-55.462 45.638,-101.1 101.1,-101.1Z" style="fill:#3171ad;fill-rule:nonzero;"/><path d="M235.3,472.2c-55.517,-0 -101.2,-45.683 -101.2,-101.2c-0.009,-19.003 5.366,-37.625 15.5,-53.7l-29.8,-0c-55.462,-0 -101.1,45.638 -101.1,101.1c-0,55.479 45.621,101.145 101.1,101.2l1091.3,-0l0,-47.4l-975.8,-0Z" style="fill:#11589e;fill-rule:nonzero;"/><path d="M985.9,459.6c18.686,-44.304 28.276,-91.916 28.2,-140l0,-2.3l-719.1,-0c-0,0.8 -0.1,1.6 -0.1,2.3c-0.042,48.09 9.583,95.702 28.3,140c8.923,20.958 19.77,41.044 32.4,60l597.9,-0c12.63,-18.956 23.477,-39.042 32.4,-60Z" style="fill:#11589e;fill-rule:nonzero;"/><circle cx="654.5" cy="319.6" r="303.6" style="fill:#f8881b;"/><circle cx="654.5" cy="319.6" r="268.3" style="fill:#f08000;"/><circle cx="654.5" cy="319.6" r="238" style="fill:#f4c23f;"/><path d="M870.5,269.9c5.6,-0 11.2,-0.3 16.7,-0.7c-22.3,-103.2 -111.4,-181.5 -219.8,-187.3c8,105.2 95.9,188 203.1,188Z" style="fill:#fad564;fill-rule:nonzero;"/><path d="M645,542.6c-19.218,0 -35.045,-15.783 -35.1,-35l-0,-42.4l-65,-0c-18.523,-0.99 -33.227,-16.501 -33.227,-35.05c-0,-18.549 14.704,-34.06 33.227,-35.05l146.9,-0c9.929,-0 18.1,-8.171 18.1,-18.1c0,-9.929 -8.171,-18.1 -18.1,-18.1l-93.8,-0c-47.238,-1.591 -85.231,-40.885 -85.231,-88.15c0,-47.265 37.993,-86.559 85.231,-88.15l11.9,-0l-0,-27.9c-0.033,-0.624 -0.05,-1.248 -0.05,-1.873c-0,-19.255 15.845,-35.1 35.1,-35.1c19.255,0 35.1,15.845 35.1,35.1c-0,0.625 -0.017,1.249 -0.05,1.873l-0,27.9l65,-0c18.523,0.99 33.227,16.501 33.227,35.05c0,18.549 -14.704,34.06 -33.227,35.05l-147,-0c-9.397,0.7 -16.756,8.627 -16.756,18.05c0,9.423 7.359,17.35 16.756,18.05l93.8,-0c48.385,0 88.2,39.815 88.2,88.2c-0,48.385 -39.815,88.2 -88.2,88.2l-11.8,-0l-0,42.4c-0,19.2 -15.8,35 -35,35Z" style="fill:#f4a93f;fill-rule:nonzero;"/><path d="M698.3,283.9l-93.7,-0c-13.495,-0 -24.6,-11.105 -24.6,-24.6c0,-13.495 11.105,-24.6 24.6,-24.6l146.9,-0c15.026,-0.89 26.91,-13.498 26.91,-28.55c-0,-15.052 -11.884,-27.66 -26.91,-28.55l-71.5,-0l0,-34.4c0.033,-0.563 0.05,-1.127 0.05,-1.69c0,-15.69 -12.911,-28.6 -28.6,-28.6c-15.689,-0 -28.6,12.91 -28.6,28.6c0,0.563 0.017,1.127 0.05,1.69l0,34.4l-18.3,-0c-0.952,-0.033 -1.905,-0.05 -2.858,-0.05c-44.819,-0 -81.7,36.881 -81.7,81.7c0,44.819 36.881,81.7 81.7,81.7c0.953,-0 1.906,-0.017 2.858,-0.05l93.7,-0c12.932,0.824 23.129,11.692 23.129,24.65c0,12.958 -10.197,23.826 -23.129,24.65l-146.9,-0c-15.635,-0 -28.5,12.865 -28.5,28.5c-0,15.635 12.865,28.5 28.5,28.5l71.5,-0l-0,48.9c0.89,15.026 13.498,26.91 28.55,26.91c15.052,-0 27.66,-11.884 28.55,-26.91l0,-48.9l18.3,-0c43.714,-1.53 78.842,-37.909 78.842,-81.65c0,-43.741 -35.128,-80.12 -78.842,-81.65Z" style="fill:#cf6b00;fill-rule:nonzero;"/><path d="M1267.4,519.6l-1147.6,-0c-55.479,-0.055 -101.1,-45.721 -101.1,-101.2c-0,-0 -0,908.8 -0,908.8c-0,50.963 41.937,92.9 92.9,92.9c0.033,0 0.067,0 0.1,-0l1155.7,-0c0.033,0 0.067,0 0.1,0c50.963,0 92.9,-41.937 92.9,-92.9c0,0 0,-714.6 0,-714.6c0,-51.018 -41.982,-93 -93,-93Z" style="fill:#67baeb;fill-rule:nonzero;"/><path d="M210.3,1272.5c-51.018,-0 -93,-41.982 -93,-93l-0,-659.9c-54.53,-1.401 -98.618,-46.652 -98.6,-101.2c-0,-0 -0,908.8 -0,908.8c-0,50.963 41.937,92.9 92.9,92.9c0.033,0 0.067,0 0.1,-0l1155.7,-0c0.033,0 0.067,0 0.1,0c50.963,0 92.9,-41.937 92.9,-92.9c0,0 0,-54.7 0,-54.7l-1150.1,-0Z" style="fill:#46a1f8;fill-rule:nonzero;"/><path d="M1360.4,820.2l-368.9,-0c-80.752,-0 -147.2,66.448 -147.2,147.2c0,80.752 66.448,147.2 147.2,147.2l368.9,-0l0,-294.4Z" style="fill:#46a1f8;fill-rule:nonzero;"/><path d="M1005.6,820.2l378.2,-0c31.928,-0 58.2,26.272 58.2,58.2l0,152.9c0,31.928 -26.272,58.2 -58.2,58.2c0,-0 -378.2,0 -378.2,0c-73.839,0 -134.6,-60.761 -134.6,-134.6c-0,-0.033 -0,-0.067 0,-0.1c0,-73.839 60.761,-134.6 134.6,-134.6Z" style="fill:#4d4c78;fill-rule:nonzero;"/><path d="M1405.4,1053.9l-378.2,-0c-73.839,-0 -134.6,-60.761 -134.6,-134.6c-0.024,-17.596 3.408,-35.026 10.1,-51.3c-20.512,24.258 -31.751,55.033 -31.7,86.8c-0,73.839 60.761,134.6 134.6,134.6l378.2,-0c27.988,-0.014 52.211,-20.179 57.3,-47.7c-10.217,7.91 -22.779,12.203 -35.7,12.2Z" style="fill:#323150;fill-rule:nonzero;"/><circle cx="1023.6" cy="954.8" r="49.7" style="fill:#c8c2e9;"/><path d="M1389.4,856.8l-0,0.01c-0,19.593 -15.907,35.5 -35.5,35.5l-195.3,-0c-19.593,-0 -35.5,-15.907 -35.5,-35.5l-0,-0.01c-0,-19.593 15.907,-35.5 35.5,-35.5l195.3,-0c19.593,-0 35.5,15.907 35.5,35.5Z" style="fill:#64639c;"/><path d="M1102.3,598.9l0,0.03c0,43.767 -35.533,79.3 -79.3,79.3l-512.8,-0c-43.767,-0 -79.3,-35.533 -79.3,-79.3l-0,-0.03c-0,-43.767 35.533,-79.3 79.3,-79.3l512.8,-0c43.767,-0 79.3,35.533 79.3,79.3Z" style="fill:#83d0fb;"/></svg>