<?xml version="1.0" encoding="UTF-8" standalone="no"?><!DOCTYPE svg PUBLIC "-//W3C//DTD SVG 1.1//EN" "http://www.w3.org/Graphics/SVG/1.1/DTD/svg11.dtd"><svg width="100%" height="100%" viewBox="0 0 1755 465" version="1.1" xmlns="http://www.w3.org/2000/svg" xmlns:xlink="http://www.w3.org/1999/xlink" xml:space="preserve" xmlns:serif="http://www.serif.com/" style="fill-rule:evenodd;clip-rule:evenodd;stroke-linejoin:round;stroke-miterlimit:2;"><g><path d="M571.496,340.5c-18.24,0 -32.736,-5.28 -43.488,-15.84c-10.752,-10.56 -16.128,-24.864 -16.128,-42.912l0,-98.496c0,-18.048 5.376,-32.352 16.128,-42.912c10.752,-10.56 25.248,-15.84 43.488,-15.84c18.24,0 32.784,5.472 43.632,16.416c10.848,10.944 16.272,25.632 16.272,44.064l-19.008,0c0,-13.632 -3.648,-24.288 -10.944,-31.968c-7.296,-7.68 -17.28,-11.52 -29.952,-11.52c-12.48,0 -22.368,3.696 -29.664,11.088c-7.296,7.392 -10.944,17.616 -10.944,30.672l0,98.496c0,13.056 3.6,23.28 10.8,30.672c7.2,7.392 17.136,11.088 29.808,11.088c12.864,0 22.896,-3.84 30.096,-11.52c7.2,-7.68 10.8,-18.336 10.8,-31.968l19.008,0c0,18.432 -5.424,33.12 -16.272,44.064c-10.848,10.944 -25.392,16.416 -43.632,16.416Z" style="fill:#fff;fill-rule:nonzero;"/><path d="M686.12,337.62l0,-210.24l61.344,0c18.624,0 33.504,5.376 44.64,16.128c11.136,10.752 16.704,25.056 16.704,42.912c0,14.976 -4.032,27.504 -12.096,37.584c-8.064,10.08 -19.104,16.56 -33.12,19.44l47.232,94.176l-22.464,0l-44.64,-92.736l-38.592,0l0,92.736l-19.008,0Zm19.008,-109.728l42.336,0c12.672,0 22.848,-3.792 30.528,-11.376c7.68,-7.584 11.52,-17.712 11.52,-30.384c0,-12.672 -3.84,-22.752 -11.52,-30.24c-7.68,-7.488 -17.856,-11.232 -30.528,-11.232l-42.336,0l0,83.232Z" style="fill:#fff;fill-rule:nonzero;"/><path d="M906.152,337.62l0,-79.776l-64.224,-130.464l19.584,0l45.216,91.584c2.112,4.416 3.984,8.4 5.616,11.952c1.632,3.552 2.832,6.192 3.6,7.92c0.768,-1.536 1.92,-4.128 3.456,-7.776c1.536,-3.648 3.456,-7.68 5.76,-12.096l44.64,-91.584l19.584,0l-64.224,130.464l0,79.776l-19.008,0Z" style="fill:#fff;fill-rule:nonzero;"/><path d="M1031.72,337.62l0,-210.24l64.224,0c18.816,0 33.84,5.424 45.072,16.272c11.232,10.848 16.848,25.392 16.848,43.632c0,18.048 -5.616,32.544 -16.848,43.488c-11.232,10.944 -26.256,16.416 -45.072,16.416l-45.216,0l0,90.432l-19.008,0Zm19.008,-107.712l45.216,0c12.864,0 23.184,-3.84 30.96,-11.52c7.776,-7.68 11.664,-18.048 11.664,-31.104c0,-13.056 -3.84,-23.424 -11.52,-31.104c-7.68,-7.68 -18.048,-11.52 -31.104,-11.52l-45.216,0l0,85.248Z" style="fill:#fff;fill-rule:nonzero;"/><path d="M1204.52,337.62l0,-210.24l64.224,0c18.816,0 33.84,5.424 45.072,16.272c11.232,10.848 16.848,25.392 16.848,43.632c0,18.048 -5.616,32.544 -16.848,43.488c-11.232,10.944 -26.256,16.416 -45.072,16.416l-45.216,0l0,90.432l-19.008,0Zm19.008,-107.712l45.216,0c12.864,0 23.184,-3.84 30.96,-11.52c7.776,-7.68 11.664,-18.048 11.664,-31.104c0,-13.056 -3.84,-23.424 -11.52,-31.104c-7.68,-7.68 -18.048,-11.52 -31.104,-11.52l-45.216,0l0,85.248Z" style="fill:#fff;fill-rule:nonzero;"/><path d="M1379.91,337.62l0,-210.24l115.776,0l0,17.28l-96.768,0l0,74.592l86.688,0l0,17.28l-86.688,0l0,83.808l96.768,0l0,17.28l-115.776,0Z" style="fill:#fff;fill-rule:nonzero;"/><path d="M1534.28,337.62l61.632,-108.288l-57.888,-101.952l21.6,0l34.272,63.36c1.728,3.264 3.888,7.248 6.48,11.952c2.592,4.704 4.848,8.592 6.768,11.664c1.728,-3.072 3.888,-6.96 6.48,-11.664c2.592,-4.704 4.752,-8.688 6.48,-11.952l34.848,-63.36l20.736,0l-57.888,100.8l61.632,109.44l-21.6,0l-37.728,-70.272c-1.728,-3.072 -3.888,-7.008 -6.48,-11.808c-2.592,-4.8 -4.848,-8.832 -6.768,-12.096c-1.728,3.264 -3.888,7.296 -6.48,12.096c-2.592,4.8 -4.752,8.736 -6.48,11.808l-38.592,70.272l-21.024,0Z" style="fill:#fff;fill-rule:nonzero;"/></g><path d="M80.15,320.347l-23.547,13.476c-3.413,1.953 -7.77,0.768 -9.723,-2.645c-1.953,-3.414 -0.768,-7.77 2.645,-9.723l22.664,-12.97l0,-176.485l153,-88.352l0,-27.148c0,-3.725 3.024,-6.75 6.75,-6.75c3.725,0 6.75,3.025 6.75,6.75l0,27.185l151.5,88.315l0,175.602l24.206,13.853c3.414,1.953 4.599,6.309 2.646,9.723c-1.954,3.413 -6.31,4.598 -9.723,2.645l-24.288,-13.9l-151.091,88.077l-151.789,-87.653Zm172.295,-252.072c-12.256,-9.025 -28.756,-8.275 -41.053,-0.099c-0.052,0.035 -0.109,0.061 -0.162,0.092l-124.041,71.982l-0,151.465c-0,12.785 4.392,18.212 13.579,23.665c28.421,16.87 131.171,76.12 131.171,76.12c-0,0 109.052,-61.827 131.95,-77.374c7.55,-5.126 11.3,-7.376 11.3,-22.671l0,-151.205c0,0 -100.457,-55.565 -122.744,-71.975Z" style="fill:url(#_Radial1);"/><path d="M110.25,162.717l-23.628,-13.984c-0.099,-0.059 -0.197,-0.12 -0.293,-0.183c-11.009,12.132 -29.399,15.291 -44.044,6.624c-16.743,-9.909 -22.29,-31.547 -12.382,-48.289c9.909,-16.743 31.547,-22.291 48.289,-12.382c5.569,3.296 9.899,7.89 12.834,13.169c4.784,8.604 5.861,19.03 2.553,28.629c0.101,0.054 0.202,0.11 0.301,0.169l22.847,13.522l115.023,-66.742l114.882,67.074l23.408,-13.854c0.1,-0.059 0.2,-0.115 0.302,-0.169c-3.309,-9.599 -2.231,-20.025 2.552,-28.629c2.935,-5.279 7.265,-9.873 12.834,-13.169c16.743,-9.909 38.38,-4.361 48.289,12.382c9.909,16.742 4.361,38.38 -12.381,48.289c-14.645,8.667 -33.035,5.508 -44.045,-6.624c-0.096,0.063 -0.193,0.124 -0.293,0.183l-24.831,14.696l-0.443,131.105l-113.149,66.527l0,25.564c0,0.116 -0.003,0.231 -0.008,0.345c9.946,2.042 18.369,8.28 23.337,16.778c3.049,5.215 4.796,11.281 4.796,17.752c0,19.455 -15.795,35.25 -35.25,35.25c-19.455,0 -35.25,-15.795 -35.25,-35.25c0,-17.017 12.085,-31.234 28.133,-34.53c-0.005,-0.114 -0.008,-0.229 -0.008,-0.345l0,-25.465l-114.375,-65.66l0,-132.783Zm-67.438,-48.192c-5.692,9.618 -2.505,22.048 7.113,27.74c9.618,5.693 22.048,2.505 27.74,-7.113c5.693,-9.618 2.506,-22.048 -7.112,-27.74c-9.618,-5.692 -22.049,-2.505 -27.741,7.113Zm188.938,-16.275c-0,0 -74.25,42.75 -80.25,46.5c-22.486,14.054 -28.5,26.25 -28.5,44.25l-0,96.75c-0,0 78,45.75 83.25,48.75c18.475,10.557 32.907,10.339 51,0c5.25,-3 83.25,-48.75 83.25,-48.75l-0,-96.75c-0,-20.236 -14.054,-35.839 -28.5,-44.25c-5.897,-3.433 -80.25,-46.5 -80.25,-46.5Zm189.358,16.275c-5.692,-9.618 -18.122,-12.805 -27.74,-7.113c-9.618,5.692 -12.805,18.122 -7.113,27.74c5.693,9.618 18.123,12.806 27.741,7.113c9.618,-5.692 12.805,-18.122 7.112,-27.74Zm-189.358,327.225c11.176,0 20.25,-9.074 20.25,-20.25c-0,-11.176 -9.074,-20.25 -20.25,-20.25c-11.176,0 -20.25,9.074 -20.25,20.25c-0,11.176 9.074,20.25 20.25,20.25Z" style="fill:url(#_Radial2);"/><path d="M171.585,287.555l-24,-13.805l0,-99l24.013,-13.813c-0.008,-0.144 -0.013,-0.29 -0.013,-0.437l0,-47.25c0,-4.139 3.361,-7.5 7.5,-7.5c4.14,0 7.5,3.361 7.5,7.5l0,39.066l45.75,-26.316l45.75,26.551l0,-39.301c0,-4.139 3.361,-7.5 7.5,-7.5c4.14,0 7.5,3.361 7.5,7.5l0,47.25c0,0.248 -0.012,0.494 -0.035,0.736l23.285,13.514l0,15.75c0,7.5 -10.5,7.5 -10.5,0l0,-6.75l-73.5,-42.75l-72.75,41.25l0,82.5l72.75,43.5l73.5,-43.5l0,-14.25c0,-7.5 10.5,-7.5 10.5,0l0,23.25l-23.25,13.493l0,47.257c0,4.139 -3.36,7.5 -7.5,7.5c-4.139,0 -7.5,-3.361 -7.5,-7.5l0,-38.551l-45.75,26.551l-45.75,-26.316l0,38.316c0,4.139 -3.36,7.5 -7.5,7.5c-4.139,0 -7.5,-3.361 -7.5,-7.5l0,-46.945Z" style="fill:#fff;"/><defs><radialGradient id="_Radial1" cx="0" cy="0" r="1" gradientUnits="userSpaceOnUse" gradientTransform="matrix(60,-163.5,175.017,64.2265,242.439,333)"><stop offset="0" style="stop-color:#d5eaf9;stop-opacity:1"/><stop offset="1" style="stop-color:#58abe7;stop-opacity:1"/></radialGradient><radialGradient id="_Radial2" cx="0" cy="0" r="1" gradientUnits="userSpaceOnUse" gradientTransform="matrix(206.972,0,0,186.75,231.96,270)"><stop offset="0" style="stop-color:#4ba8e1;stop-opacity:1"/><stop offset="1" style="stop-color:#d5eaf9;stop-opacity:1"/></radialGradient></defs></svg>