<?xml version="1.0" encoding="UTF-8" standalone="no"?>
<svg width="100%" height="100%" viewBox="0 0 465 465" version="1.1" xmlns="http://www.w3.org/2000/svg"
     xml:space="preserve"
     style="fill-rule:evenodd;clip-rule:evenodd;stroke-linejoin:round;stroke-miterlimit:2;"><rect x="0" y="-0" width="465" height="465" style="fill:#04121b;"/>
    <path d="M80.15,320.347l-23.547,13.476c-3.413,1.953 -7.77,0.768 -9.723,-2.645c-1.953,-3.414 -0.768,-7.77 2.645,-9.723l22.664,-12.97l-0,-176.485l153,-88.352l-0,-27.148c-0,-3.725 3.024,-6.75 6.75,-6.75c3.725,0 6.75,3.025 6.75,6.75l-0,27.185l151.5,88.315l-0,175.602l24.206,13.853c3.414,1.953 4.599,6.309 2.646,9.723c-1.954,3.413 -6.31,4.598 -9.723,2.645l-24.288,-13.9l-151.091,88.077l-151.789,-87.653Zm172.295,-252.072c-12.256,-9.025 -28.756,-8.275 -41.053,-0.099c-0.052,0.035 -0.109,0.061 -0.162,0.092l-124.041,71.982l-0,151.465c-0,12.785 4.392,18.212 13.579,23.665c28.421,16.87 131.171,76.12 131.171,76.12c-0,-0 109.052,-61.827 131.95,-77.374c7.55,-5.126 11.3,-7.376 11.3,-22.671l-0,-151.205c-0,-0 -100.457,-55.565 -122.744,-71.975Z"
          style="fill:url(#_Radial1);"/>
    <path d="M110.25,162.717l-23.628,-13.984c-0.099,-0.059 -0.197,-0.12 -0.293,-0.183c-11.009,12.132 -29.399,15.291 -44.044,6.624c-16.743,-9.909 -22.29,-31.547 -12.382,-48.289c9.909,-16.743 31.547,-22.291 48.289,-12.382c5.569,3.296 9.899,7.89 12.834,13.169c4.784,8.604 5.861,19.03 2.553,28.629c0.101,0.054 0.202,0.11 0.301,0.169l22.847,13.522l115.023,-66.742l114.882,67.074l23.408,-13.854c0.1,-0.059 0.2,-0.115 0.302,-0.169c-3.309,-9.599 -2.231,-20.025 2.552,-28.629c2.935,-5.279 7.265,-9.873 12.834,-13.169c16.743,-9.909 38.38,-4.361 48.289,12.382c9.909,16.742 4.361,38.38 -12.381,48.289c-14.645,8.667 -33.035,5.508 -44.045,-6.624c-0.096,0.063 -0.193,0.124 -0.293,0.183l-24.831,14.696l-0.443,131.105l-113.149,66.527l-0,25.564c-0,0.116 -0.003,0.231 -0.008,0.345c9.946,2.042 18.369,8.28 23.337,16.778c3.049,5.215 4.796,11.281 4.796,17.752c-0,19.455 -15.795,35.25 -35.25,35.25c-19.455,-0 -35.25,-15.795 -35.25,-35.25c-0,-17.017 12.085,-31.234 28.133,-34.53c-0.005,-0.114 -0.008,-0.229 -0.008,-0.345l-0,-25.465l-114.375,-65.66l-0,-132.783Zm-67.438,-48.192c-5.692,9.618 -2.505,22.048 7.113,27.74c9.618,5.693 22.048,2.505 27.74,-7.113c5.693,-9.618 2.506,-22.048 -7.112,-27.74c-9.618,-5.692 -22.049,-2.505 -27.741,7.113Zm188.938,-16.275c-0,-0 -74.25,42.75 -80.25,46.5c-22.486,14.054 -28.5,26.25 -28.5,44.25l-0,96.75c-0,-0 78,45.75 83.25,48.75c18.475,10.557 32.907,10.339 51,-0c5.25,-3 83.25,-48.75 83.25,-48.75l-0,-96.75c0,-20.236 -14.054,-35.839 -28.5,-44.25c-5.897,-3.433 -80.25,-46.5 -80.25,-46.5Zm189.358,16.275c-5.692,-9.618 -18.122,-12.805 -27.74,-7.113c-9.618,5.692 -12.805,18.122 -7.113,27.74c5.693,9.618 18.123,12.806 27.741,7.113c9.618,-5.692 12.805,-18.122 7.112,-27.74Zm-189.358,327.225c11.176,-0 20.25,-9.074 20.25,-20.25c-0,-11.176 -9.074,-20.25 -20.25,-20.25c-11.176,-0 -20.25,9.074 -20.25,20.25c-0,11.176 9.074,20.25 20.25,20.25Z"
          style="fill:url(#_Radial2);"/>
    <path d="M171.585,287.555l-24,-13.805l0,-99l24.013,-13.813c-0.008,-0.144 -0.013,-0.29 -0.013,-0.437l0,-47.25c0,-4.139 3.361,-7.5 7.5,-7.5c4.14,0 7.5,3.361 7.5,7.5l0,39.066l45.75,-26.316l45.75,26.551l0,-39.301c0,-4.139 3.361,-7.5 7.5,-7.5c4.14,0 7.5,3.361 7.5,7.5l0,47.25c0,0.248 -0.012,0.494 -0.035,0.736l23.285,13.514l0,15.75c0,7.5 -10.5,7.5 -10.5,0l0,-6.75l-73.5,-42.75l-72.75,41.25l0,82.5l72.75,43.5l73.5,-43.5l0,-14.25c0,-7.5 10.5,-7.5 10.5,-0l0,23.25l-23.25,13.493c0,0.003 0,0.005 0,0.007l0,47.25c0,4.139 -3.36,7.5 -7.5,7.5c-4.139,-0 -7.5,-3.361 -7.5,-7.5l0,-38.551l-45.75,26.551l-45.75,-26.316l0,38.316c0,4.139 -3.36,7.5 -7.5,7.5c-4.139,-0 -7.5,-3.361 -7.5,-7.5l0,-46.945Z"
          style="fill:#fff;"/>
    <defs><radialGradient id="_Radial1" cx="0" cy="0" r="1" gradientUnits="userSpaceOnUse" gradientTransform="matrix(60,-163.5,175.017,64.2265,242.439,333)"><stop offset="0" style="stop-color:#d5eaf9;stop-opacity:1"/><stop
            offset="1" style="stop-color:#58abe7;stop-opacity:1"/></radialGradient>
        <radialGradient id="_Radial2" cx="0" cy="0" r="1" gradientUnits="userSpaceOnUse"
                        gradientTransform="matrix(206.972,0,0,186.75,231.96,270)"><stop offset="0" style="stop-color:#4ba8e1;stop-opacity:1"/>
            <stop offset="1" style="stop-color:#d5eaf9;stop-opacity:1"/></radialGradient></defs></svg>